# xmcd
# 
# Track frame offsets:
#     150
#     15346
#     30244
#     48851
#     63563
#     86730
#     107065
#     127867
#     141347
#     156266
#     171943
#     194165
#     217051
#     237089
# 
# Disc length: 3357
# 
# Revision: 0
# Processed by: cddbd v1.5.2PL0 Copyright (c) Steve Scherf et al.
# Submitted via: fre:ac v1.0.31
# 
DISCID=bf0d1b0e
DTITLE=Jean-Paul Martinez - Jean-Paul
DYEAR=0
DGENRE=Folk/Rock
TTITLE0=Le Jour Se Lève (Garou)
TTITLE1=Le Géant De Papier (Jean-Jacques Laffont)
TTITLE2=Je Viens Du Sud (Michel Sardou)
TTITLE3=Viens M'Embrasser (Julio Iglésias)
TTITLE4=Il Faut Toujours Un Perdant (Julio Iglésias)
TTITLE5=Pour Elle (Richard Cocciante)
TTITLE6=Avec Simplicité (Richard Cocciante)
TTITLE7=La France De Mon Enfance (Enrico Macias)
TTITLE8=Les Ballons Rouges (Serge Lama)
TTITLE9=Marie La Polonaise (Serge Lama)
TTITLE10=L'Amour Interdit (Franck Fernandel)
TTITLE11=Derrière L'Amour (Johnny Hallyday)
TTITLE12=Vivre Pour Le Meilleur (Johnny Hallyday)
TTITLE13=You Raise Me Up (Wesley Klein)
EXTD=Jean-Paul.Martinez13@orange.fr
EXTT0=
EXTT1=
EXTT2=
EXTT3=
EXTT4=
EXTT5=
EXTT6=
EXTT7=
EXTT8=
EXTT9=
EXTT10=
EXTT11=
EXTT12=
EXTT13=
PLAYORDER=
